<svg width="800" height="220" xmlns="http://www.w3.org/2000/svg"><path style="fill:#fff;stroke-width:.05;stroke-linecap:round;fill-opacity:1" d="M220 0v220h560c11.08 0 20-8.92 20-20V20c0-11.08-8.92-20-20-20z"/><path style="fill:#161312;fill-opacity:1;stroke:none;stroke-width:.05;stroke-linecap:round;stroke-miterlimit:4;stroke-dasharray:none;stroke-opacity:1" d="M20 0C8.92 0 0 8.92 0 20v180c0 11.08 8.92 20 20 20h200V0H20z"/><path d="M109.995 46C73.763 46 44.38 75.38 44.38 111.621c0 28.988 18.8 53.585 44.876 62.266 3.283.6 4.48-1.427 4.48-3.166 0-1.558-.057-5.684-.09-11.158-18.252 3.964-22.103-8.798-22.103-8.798-2.985-7.581-7.287-9.6-7.287-9.6-5.958-4.068.452-3.988.452-3.988 6.587.464 10.051 6.764 10.051 6.764 5.853 10.026 15.36 7.13 19.098 5.45.597-4.237 2.292-7.13 4.165-8.77-14.57-1.658-29.89-7.286-29.89-32.431 0-7.167 2.558-13.02 6.756-17.608-.676-1.659-2.929-8.33.644-17.366 0 0 5.507-1.763 18.043 6.723 5.233-1.453 10.848-2.178 16.427-2.207 5.575.028 11.187.755 16.428 2.207 12.528-8.487 18.027-6.723 18.027-6.723 3.58 9.036 1.328 15.706.655 17.366 4.206 4.588 6.744 10.441 6.744 17.608 0 25.21-15.344 30.756-29.959 32.38 2.352 2.027 4.451 6.03 4.451 12.153 0 8.77-.08 15.847-.08 17.998 0 1.758 1.183 3.799 4.511 3.159 26.056-8.698 44.84-33.274 44.84-62.258C175.62 75.379 146.237 46 109.994 46" style="fill:#fff;fill-opacity:1;fill-rule:evenodd;stroke:none;stroke-width:.00419618;stroke-opacity:1"/><g style="fill:#161312;fill-opacity:1;stroke:none;stroke-width:.0104167;stroke-opacity:1"><path d="M177.281 439.013h-30.267a1.415 1.415 0 0 1-1.414-1.416V422.8c0-.781.633-1.417 1.414-1.417h11.807v-18.385s-2.651-.904-9.981-.904c-8.647 0-20.727 3.16-20.727 29.724 0 26.568 12.579 30.064 24.388 30.064 10.223 0 14.626-1.799 17.429-2.666.881-.27 1.695.606 1.695 1.388l3.376 14.298c0 .365-.124.806-.54 1.105-1.138.811-8.081 4.696-25.621 4.696-20.205 0-40.932-8.596-40.932-49.922 0-41.326 23.73-47.484 43.727-47.484 16.557 0 26.601 7.075 26.601 7.075.414.229.459.807.459 1.073v46.152c0 .782-.633 1.416-1.414 1.416M333.265 475.752a1.41 1.41 0 0 1-1.406 1.423h-17.042a1.417 1.417 0 0 1-1.411-1.423l.005-32.935h-26.565v32.935c0 .787-.626 1.423-1.406 1.423h-17.041a1.417 1.417 0 0 1-1.408-1.423v-89.178a1.42 1.42 0 0 1 1.408-1.427h17.041c.78 0 1.406.64 1.406 1.427v38.144h26.565l-.047-38.144a1.42 1.42 0 0 1 1.412-1.427h17.082c.781 0 1.405.64 1.407 1.427v89.178M209.44 464.05c0 6.136-4.919 11.095-10.989 11.095-6.064 0-10.988-4.959-10.988-11.095 0-6.131 4.924-11.103 10.988-11.103 6.07 0 10.989 4.972 10.989 11.103M208.222 405.385v41.165c0 .782-.631 1.421-1.41 1.421h-16.989c-.779 0-1.476-.804-1.476-1.585v-58.977c0-1.733 1.08-2.249 2.477-2.249h15.306c1.68 0 2.092.825 2.092 2.277v17.948M398.032 447.837h-16.911c-.775 0-1.407-.64-1.407-1.426v-43.727s-4.297-3.143-10.395-3.143c-6.097 0-7.715 2.767-7.715 8.738v38.132c0 .786-.63 1.426-1.407 1.426h-17.164c-.774 0-1.409-.64-1.409-1.426v-41.02c0-17.735 9.884-22.073 23.481-22.073 11.156 0 20.15 6.162 20.15 6.162s.428-3.248.622-3.633c.193-.384.698-.772 1.244-.772l10.919.049c.774 0 1.409.64 1.409 1.423l-.006 59.864a1.42 1.42 0 0 1-1.411 1.426M437.584 399.595c-5.866.178-9.845 2.84-9.845 2.84v28.241s3.925 2.406 8.741 2.836c6.09.545 11.958-1.294 11.958-15.822 0-15.319-2.648-18.343-10.854-18.095zm6.67 50.245c-9.605 0-16.138-4.286-16.138-4.286v30.198c0 .787-.63 1.423-1.406 1.423h-17.091a1.415 1.415 0 0 1-1.408-1.423v-89.178a1.42 1.42 0 0 1 1.41-1.427h11.858c.534 0 .938.275 1.237.757.295.48.72 4.112.72 4.112s6.988-6.622 20.217-6.622c15.532 0 24.439 7.877 24.439 35.365 0 27.489-14.226 31.081-23.838 31.081M257.202 447.979h-12.784l-.019 16.888c0 .64-.33.959-1.069.959h-17.42c-.678 0-1.041-.298-1.041-.949v-17.452s-8.73-2.107-9.321-2.278a1.415 1.415 0 0 1-1.02-1.359v-10.967c0-.789.63-1.425 1.409-1.425h8.932v-26.384c0-19.597 13.746-21.522 23.021-21.522 4.239 0 9.309 1.361 10.146 1.67.506.186.8.711.8 1.279l.015 12.065a1.44 1.44 0 0 1-1.413 1.423c-.746 0-2.651-.303-4.613-.303-6.28 0-8.407 2.919-8.407 6.699l-.001 25.073h12.785c.779 0 1.41.636 1.41 1.425v13.737c0 .787-.631 1.421-1.41 1.421" style="fill:#161312;fill-opacity:1;fill-rule:nonzero;stroke:none;stroke-width:.00104167;stroke-opacity:1" transform="matrix(1.31409 0 0 -1.31409 131.543 677.685)"/></g></svg>