<svg width="96" height="88.329" viewBox="0 0 1 0.92" xmlns="http://www.w3.org/2000/svg"><path style="fill:#36cf9b;fill-opacity:1;stroke-width:.0653337;stroke-linecap:round" d="M.682.738c-.2 0-.318.138-.318.308 0 .17.121.307.319.309a.3.3 0 0 0 .319-.309c0-.17-.119-.308-.32-.308zm.002.137c.094 0 .153.077.153.171 0 .095-.058.171-.154.171s-.154-.076-.154-.171c0-.094.06-.17.154-.171h.001z" transform="matrix(1.48747 0 0 1.48747 -.542 -1.095)"/><path style="fill:#4b4b4b;fill-opacity:1;stroke-width:.0653338;stroke-linecap:round" d="M.991.736.735.993l-.06-.06-.143.145a.185.185 0 0 0 .022.066l.122-.122.06.06.3-.3z" transform="matrix(1.48747 0 0 1.48747 -.542 -1.095)"/></svg>