<svg width="144" height="31.173" viewBox="0 0 1.5 0.325" xmlns="http://www.w3.org/2000/svg"><g aria-label="senso" style="font-weight:600;font-size:.503723px;line-height:1.25;font-family:'Poppins Latin';-inkscape-font-specification:'Poppins Latin Semi-Bold';letter-spacing:-.0260417px;fill:#1d2345;fill-opacity:1;stroke-width:.0236121"><path d="M2.252 3.267c-.002-.102-.157-.07-.157-.122 0-.016.014-.026.04-.026.028 0 .045.014.047.036h.067c-.004-.055-.044-.092-.112-.092-.069 0-.11.037-.11.083 0 .103.157.07.157.12 0 .017-.015.03-.042.03-.029 0-.048-.017-.05-.038H2.02c.003.052.052.093.122.093.068 0 .11-.036.11-.084zM2.404 3.12c.036 0 .065.024.066.06h-.132c.005-.038.032-.06.066-.06zm.132.139H2.46a.058.058 0 0 1-.056.033c-.035 0-.063-.023-.067-.064h.204a.165.165 0 0 0 .002-.027.131.131 0 0 0-.137-.138c-.083 0-.14.056-.14.144s.059.144.14.144a.13.13 0 0 0 .13-.092zM2.764 3.346h.07v-.163c0-.077-.046-.12-.11-.12a.104.104 0 0 0-.085.04v-.036h-.07v.28h.07v-.155c0-.045.025-.069.063-.069.037 0 .062.024.062.07zM3.092 3.267c-.002-.102-.157-.07-.157-.122 0-.016.014-.026.04-.026.028 0 .045.014.047.036h.068c-.005-.055-.045-.092-.113-.092-.069 0-.11.037-.11.083 0 .103.158.07.158.12 0 .017-.016.03-.043.03-.028 0-.048-.017-.05-.038H2.86c.003.052.052.093.122.093.068 0 .11-.036.11-.084zM3.393 3.207a.138.138 0 0 0-.143-.144.138.138 0 0 0-.144.144c0 .088.061.144.142.144a.14.14 0 0 0 .145-.144zm-.215 0c0-.056.034-.083.07-.083.038 0 .073.027.073.083 0 .055-.036.082-.073.082-.038 0-.07-.027-.07-.082z" style="fill:#1d2345;fill-opacity:1" transform="translate(-2.167 -3.27) scale(1.07265)"/></g><path style="font-weight:600;font-size:.503723px;line-height:1.25;font-family:'Poppins Latin';-inkscape-font-specification:'Poppins Latin Semi-Bold';letter-spacing:-.0260417px;fill:#36cf9b;fill-opacity:1;stroke-width:.0236121" d="M4.087.79c.077.004.138.06.142.143V.79z" transform="translate(-3.037 -.848) scale(1.07265)"/></svg>